<mxfile host="app.diagrams.net" agent="Mozilla/5.0 (Windows NT 10.0; Win64; x64) AppleWebKit/537.36 (KHTML, like Gecko) Chrome/130.0.0.0 Safari/537.36" version="24.8.3">
  <diagram name="Page-1" id="MmqdwCN_37UXj2dwQ2gH">
    <mxGraphModel dx="1050" dy="570" grid="1" gridSize="10" guides="1" tooltips="1" connect="1" arrows="1" fold="1" page="1" pageScale="1" pageWidth="850" pageHeight="1100" math="0" shadow="0">
      <root>
        <mxCell id="0" />
        <mxCell id="1" parent="0" />
        <mxCell id="6DdKNWzpu1CCDr-tCBe5-1" value="&lt;font style=&quot;font-size: 18px;&quot;&gt;customer&lt;/font&gt;" style="rounded=0;whiteSpace=wrap;html=1;" vertex="1" parent="1">
          <mxGeometry x="150" y="110" width="120" height="60" as="geometry" />
        </mxCell>
        <mxCell id="6DdKNWzpu1CCDr-tCBe5-2" value="&lt;font size=&quot;3&quot;&gt;database&lt;/font&gt;" style="rounded=0;whiteSpace=wrap;html=1;" vertex="1" parent="1">
          <mxGeometry x="560" y="110" width="120" height="60" as="geometry" />
        </mxCell>
        <mxCell id="6DdKNWzpu1CCDr-tCBe5-3" value="&lt;font style=&quot;font-size: 18px;&quot;&gt;delivery_person&lt;/font&gt;" style="rounded=0;whiteSpace=wrap;html=1;" vertex="1" parent="1">
          <mxGeometry x="545" y="320" width="150" height="70" as="geometry" />
        </mxCell>
        <mxCell id="6DdKNWzpu1CCDr-tCBe5-4" value="&lt;font style=&quot;font-size: 18px;&quot;&gt;manager&lt;/font&gt;" style="rounded=0;whiteSpace=wrap;html=1;" vertex="1" parent="1">
          <mxGeometry x="150" y="325" width="120" height="60" as="geometry" />
        </mxCell>
        <mxCell id="6DdKNWzpu1CCDr-tCBe5-7" value="" style="endArrow=classic;html=1;rounded=0;exitX=1;exitY=0.25;exitDx=0;exitDy=0;entryX=0;entryY=0.25;entryDx=0;entryDy=0;" edge="1" parent="1" source="6DdKNWzpu1CCDr-tCBe5-1" target="6DdKNWzpu1CCDr-tCBe5-2">
          <mxGeometry width="50" height="50" relative="1" as="geometry">
            <mxPoint x="400" y="320" as="sourcePoint" />
            <mxPoint x="450" y="270" as="targetPoint" />
          </mxGeometry>
        </mxCell>
        <mxCell id="6DdKNWzpu1CCDr-tCBe5-8" value="&lt;font style=&quot;font-size: 14px;&quot;&gt;1: registerCustomer&lt;/font&gt;" style="text;html=1;align=center;verticalAlign=middle;resizable=0;points=[];autosize=1;strokeColor=none;fillColor=none;" vertex="1" parent="1">
          <mxGeometry x="270" y="100" width="150" height="30" as="geometry" />
        </mxCell>
        <mxCell id="6DdKNWzpu1CCDr-tCBe5-10" value="&lt;font style=&quot;font-size: 14px;&quot;&gt;2: validate&lt;/font&gt;" style="html=1;align=left;spacingLeft=2;endArrow=block;rounded=0;edgeStyle=orthogonalEdgeStyle;curved=0;rounded=0;exitX=1;exitY=0.25;exitDx=0;exitDy=0;entryX=1;entryY=0.75;entryDx=0;entryDy=0;" edge="1" target="6DdKNWzpu1CCDr-tCBe5-2" parent="1" source="6DdKNWzpu1CCDr-tCBe5-2">
          <mxGeometry relative="1" as="geometry">
            <mxPoint x="680" y="125" as="sourcePoint" />
            <Array as="points">
              <mxPoint x="710" y="125" />
              <mxPoint x="710" y="155" />
            </Array>
            <mxPoint x="685" y="155" as="targetPoint" />
          </mxGeometry>
        </mxCell>
        <mxCell id="6DdKNWzpu1CCDr-tCBe5-11" value="" style="endArrow=classic;html=1;rounded=0;exitX=0;exitY=0.75;exitDx=0;exitDy=0;entryX=1;entryY=0.75;entryDx=0;entryDy=0;" edge="1" parent="1" source="6DdKNWzpu1CCDr-tCBe5-2" target="6DdKNWzpu1CCDr-tCBe5-1">
          <mxGeometry width="50" height="50" relative="1" as="geometry">
            <mxPoint x="570" y="135" as="sourcePoint" />
            <mxPoint x="280" y="135" as="targetPoint" />
          </mxGeometry>
        </mxCell>
        <mxCell id="6DdKNWzpu1CCDr-tCBe5-12" value="&lt;font style=&quot;font-size: 14px;&quot;&gt;3: Registered Successfully&lt;/font&gt;" style="text;html=1;align=center;verticalAlign=middle;resizable=0;points=[];autosize=1;strokeColor=none;fillColor=none;" vertex="1" parent="1">
          <mxGeometry x="270" y="150" width="190" height="30" as="geometry" />
        </mxCell>
        <mxCell id="6DdKNWzpu1CCDr-tCBe5-13" value="" style="endArrow=classic;html=1;rounded=0;exitX=0.5;exitY=1;exitDx=0;exitDy=0;entryX=0.5;entryY=0;entryDx=0;entryDy=0;" edge="1" parent="1" source="6DdKNWzpu1CCDr-tCBe5-2" target="6DdKNWzpu1CCDr-tCBe5-3">
          <mxGeometry width="50" height="50" relative="1" as="geometry">
            <mxPoint x="570" y="165" as="sourcePoint" />
            <mxPoint x="280" y="165" as="targetPoint" />
          </mxGeometry>
        </mxCell>
        <mxCell id="6DdKNWzpu1CCDr-tCBe5-14" value="&lt;font style=&quot;font-size: 14px;&quot;&gt;4: getCustomerDetails&lt;/font&gt;" style="text;html=1;align=center;verticalAlign=middle;resizable=0;points=[];autosize=1;strokeColor=none;fillColor=none;" vertex="1" parent="1">
          <mxGeometry x="620" y="210" width="170" height="30" as="geometry" />
        </mxCell>
        <mxCell id="6DdKNWzpu1CCDr-tCBe5-15" value="" style="endArrow=classic;html=1;rounded=0;exitX=0;exitY=0.5;exitDx=0;exitDy=0;entryX=1;entryY=0.5;entryDx=0;entryDy=0;" edge="1" parent="1" source="6DdKNWzpu1CCDr-tCBe5-3" target="6DdKNWzpu1CCDr-tCBe5-4">
          <mxGeometry width="50" height="50" relative="1" as="geometry">
            <mxPoint x="550" y="350" as="sourcePoint" />
            <mxPoint x="260" y="350" as="targetPoint" />
          </mxGeometry>
        </mxCell>
        <mxCell id="6DdKNWzpu1CCDr-tCBe5-16" value="&lt;font style=&quot;font-size: 14px;&quot;&gt;5: deliverNewsPaper&lt;/font&gt;" style="text;html=1;align=center;verticalAlign=middle;resizable=0;points=[];autosize=1;strokeColor=none;fillColor=none;" vertex="1" parent="1">
          <mxGeometry x="315" y="310" width="160" height="30" as="geometry" />
        </mxCell>
      </root>
    </mxGraphModel>
  </diagram>
</mxfile>
